<?xml version="1.0" encoding="UTF-8" standalone="no"?>
<!DOCTYPE svg PUBLIC "-//W3C//DTD SVG 1.1//EN"
 "http://www.w3.org/Graphics/SVG/1.1/DTD/svg11.dtd">
<!-- Generated by graphviz version 13.1.0 (20250701.0955)
 -->
<!-- Title: src/driver_gp2y1051au0f.h Pages: 1 -->
<svg width="467pt" height="232pt"
 viewBox="0.00 0.00 467.00 232.00" xmlns="http://www.w3.org/2000/svg" xmlns:xlink="http://www.w3.org/1999/xlink">
<g id="graph0" class="graph" transform="scale(1 1) rotate(0) translate(4 228)">
<title>src/driver_gp2y1051au0f.h</title>
<!-- Node1 -->
<g id="Node000001" class="node">
<title>Node1</title>
<g id="a_Node000001"><a xlink:title="driver gp2y1051au0f header file">
<polygon fill="#999999" stroke="#666666" points="380.25,-224 249.5,-224 249.5,-204 380.25,-204 380.25,-224"/>
<text xml:space="preserve" text-anchor="middle" x="314.88" y="-210.5" font-family="Helvetica,sans-Serif" font-size="10.00">src/driver_gp2y1051au0f.h</text>
</a>
</g>
</g>
<!-- Node2 -->
<g id="Node000002" class="node">
<title>Node2</title>
<g id="a_Node000002"><a xlink:href="driver__gp2y1051au0f__interface_8h.html" target="_top" xlink:title="driver gp2y1051au0f interface header file">
<polygon fill="white" stroke="#666666" points="310.12,-168 163.62,-168 163.62,-136 310.12,-136 310.12,-168"/>
<text xml:space="preserve" text-anchor="start" x="171.62" y="-154.5" font-family="Helvetica,sans-Serif" font-size="10.00">interface/driver_gp2y1051au0f</text>
<text xml:space="preserve" text-anchor="middle" x="236.88" y="-142.5" font-family="Helvetica,sans-Serif" font-size="10.00">_interface.h</text>
</a>
</g>
</g>
<!-- Node1&#45;&gt;Node2 -->
<g id="edge1_Node000001_Node000002" class="edge">
<title>Node1&#45;&gt;Node2</title>
<g id="a_edge1_Node000001_Node000002"><a xlink:title=" ">
<path fill="none" stroke="#63b8ff" d="M293.78,-196.78C282.3,-187.94 268.17,-177.07 256.86,-168.37"/>
<polygon fill="#63b8ff" stroke="#63b8ff" points="291.43,-199.38 301.49,-202.7 295.7,-193.83 291.43,-199.38"/>
</a>
</g>
</g>
<!-- Node8 -->
<g id="Node000008" class="node">
<title>Node8</title>
<g id="a_Node000008"><a xlink:href="driver__gp2y1051au0f_8c.html" target="_top" xlink:title="driver gp2y1051au0f source file">
<polygon fill="white" stroke="#666666" points="459.25,-162 328.5,-162 328.5,-142 459.25,-142 459.25,-162"/>
<text xml:space="preserve" text-anchor="middle" x="393.88" y="-148.5" font-family="Helvetica,sans-Serif" font-size="10.00">src/driver_gp2y1051au0f.c</text>
</a>
</g>
</g>
<!-- Node1&#45;&gt;Node8 -->
<g id="edge7_Node000001_Node000008" class="edge">
<title>Node1&#45;&gt;Node8</title>
<g id="a_edge7_Node000001_Node000008"><a xlink:title=" ">
<path fill="none" stroke="#63b8ff" d="M336.06,-196.91C350.64,-185.84 369.48,-171.53 381.62,-162.31"/>
<polygon fill="#63b8ff" stroke="#63b8ff" points="334.27,-193.87 328.42,-202.71 338.5,-199.45 334.27,-193.87"/>
</a>
</g>
</g>
<!-- Node3 -->
<g id="Node000003" class="node">
<title>Node3</title>
<g id="a_Node000003"><a xlink:href="driver__gp2y1051au0f__basic_8h.html" target="_top" xlink:title="driver gp2y1051au0f basic header file">
<polygon fill="white" stroke="#666666" points="145.75,-100 0,-100 0,-68 145.75,-68 145.75,-100"/>
<text xml:space="preserve" text-anchor="start" x="8" y="-86.5" font-family="Helvetica,sans-Serif" font-size="10.00">example/driver_gp2y1051au0f</text>
<text xml:space="preserve" text-anchor="middle" x="72.88" y="-74.5" font-family="Helvetica,sans-Serif" font-size="10.00">_basic.h</text>
</a>
</g>
</g>
<!-- Node2&#45;&gt;Node3 -->
<g id="edge2_Node000002_Node000003" class="edge">
<title>Node2&#45;&gt;Node3</title>
<g id="a_edge2_Node000002_Node000003"><a xlink:title=" ">
<path fill="none" stroke="#63b8ff" d="M187.9,-131.29C163.42,-121.44 134.22,-109.69 111.37,-100.49"/>
<polygon fill="#63b8ff" stroke="#63b8ff" points="186.44,-134.47 197.02,-134.96 189.05,-127.98 186.44,-134.47"/>
</a>
</g>
</g>
<!-- Node5 -->
<g id="Node000005" class="node">
<title>Node5</title>
<g id="a_Node000005"><a xlink:href="driver__gp2y1051au0f__interface__template_8c.html" target="_top" xlink:title="driver gp2y1051au0f interface template source file">
<polygon fill="white" stroke="#666666" points="310.12,-100 163.62,-100 163.62,-68 310.12,-68 310.12,-100"/>
<text xml:space="preserve" text-anchor="start" x="171.62" y="-86.5" font-family="Helvetica,sans-Serif" font-size="10.00">interface/driver_gp2y1051au0f</text>
<text xml:space="preserve" text-anchor="middle" x="236.88" y="-74.5" font-family="Helvetica,sans-Serif" font-size="10.00">_interface_template.c</text>
</a>
</g>
</g>
<!-- Node2&#45;&gt;Node5 -->
<g id="edge4_Node000002_Node000005" class="edge">
<title>Node2&#45;&gt;Node5</title>
<g id="a_edge4_Node000002_Node000005"><a xlink:title=" ">
<path fill="none" stroke="#63b8ff" d="M236.88,-124.31C236.88,-116.12 236.88,-107.38 236.88,-100.22"/>
<polygon fill="#63b8ff" stroke="#63b8ff" points="233.38,-124.18 236.88,-134.18 240.38,-124.18 233.38,-124.18"/>
</a>
</g>
</g>
<!-- Node6 -->
<g id="Node000006" class="node">
<title>Node6</title>
<g id="a_Node000006"><a xlink:href="driver__gp2y1051au0f__read__test_8h.html" target="_top" xlink:title="driver gp2y1051au0f read test header file">
<polygon fill="white" stroke="#666666" points="453.62,-100 328.12,-100 328.12,-68 453.62,-68 453.62,-100"/>
<text xml:space="preserve" text-anchor="start" x="336.12" y="-86.5" font-family="Helvetica,sans-Serif" font-size="10.00">test/driver_gp2y1051au0f</text>
<text xml:space="preserve" text-anchor="middle" x="390.88" y="-74.5" font-family="Helvetica,sans-Serif" font-size="10.00">_read_test.h</text>
</a>
</g>
</g>
<!-- Node2&#45;&gt;Node6 -->
<g id="edge5_Node000002_Node000006" class="edge">
<title>Node2&#45;&gt;Node6</title>
<g id="a_edge5_Node000002_Node000006"><a xlink:title=" ">
<path fill="none" stroke="#63b8ff" d="M283.48,-131.03C306.34,-121.23 333.46,-109.61 354.73,-100.49"/>
<polygon fill="#63b8ff" stroke="#63b8ff" points="282.19,-127.77 274.37,-134.93 284.94,-134.21 282.19,-127.77"/>
</a>
</g>
</g>
<!-- Node4 -->
<g id="Node000004" class="node">
<title>Node4</title>
<g id="a_Node000004"><a xlink:href="driver__gp2y1051au0f__basic_8c.html" target="_top" xlink:title="driver gp2y1051au0f basic source file">
<polygon fill="white" stroke="#666666" points="145.75,-32 0,-32 0,0 145.75,0 145.75,-32"/>
<text xml:space="preserve" text-anchor="start" x="8" y="-18.5" font-family="Helvetica,sans-Serif" font-size="10.00">example/driver_gp2y1051au0f</text>
<text xml:space="preserve" text-anchor="middle" x="72.88" y="-6.5" font-family="Helvetica,sans-Serif" font-size="10.00">_basic.c</text>
</a>
</g>
</g>
<!-- Node3&#45;&gt;Node4 -->
<g id="edge3_Node000003_Node000004" class="edge">
<title>Node3&#45;&gt;Node4</title>
<g id="a_edge3_Node000003_Node000004"><a xlink:title=" ">
<path fill="none" stroke="#63b8ff" d="M72.88,-56.31C72.88,-48.12 72.88,-39.38 72.88,-32.22"/>
<polygon fill="#63b8ff" stroke="#63b8ff" points="69.38,-56.18 72.88,-66.18 76.38,-56.18 69.38,-56.18"/>
</a>
</g>
</g>
<!-- Node7 -->
<g id="Node000007" class="node">
<title>Node7</title>
<g id="a_Node000007"><a xlink:href="driver__gp2y1051au0f__read__test_8c.html" target="_top" xlink:title="driver gp2y1051au0f read test source file">
<polygon fill="white" stroke="#666666" points="453.62,-32 328.12,-32 328.12,0 453.62,0 453.62,-32"/>
<text xml:space="preserve" text-anchor="start" x="336.12" y="-18.5" font-family="Helvetica,sans-Serif" font-size="10.00">test/driver_gp2y1051au0f</text>
<text xml:space="preserve" text-anchor="middle" x="390.88" y="-6.5" font-family="Helvetica,sans-Serif" font-size="10.00">_read_test.c</text>
</a>
</g>
</g>
<!-- Node6&#45;&gt;Node7 -->
<g id="edge6_Node000006_Node000007" class="edge">
<title>Node6&#45;&gt;Node7</title>
<g id="a_edge6_Node000006_Node000007"><a xlink:title=" ">
<path fill="none" stroke="#63b8ff" d="M390.88,-56.31C390.88,-48.12 390.88,-39.38 390.88,-32.22"/>
<polygon fill="#63b8ff" stroke="#63b8ff" points="387.38,-56.18 390.88,-66.18 394.38,-56.18 387.38,-56.18"/>
</a>
</g>
</g>
</g>
</svg>
