<?xml version="1.0" encoding="UTF-8" standalone="no"?>
<!DOCTYPE svg PUBLIC "-//W3C//DTD SVG 1.1//EN"
 "http://www.w3.org/Graphics/SVG/1.1/DTD/svg11.dtd">
<!-- Generated by graphviz version 13.1.0 (20250701.0955)
 -->
<!-- Title: gp2y1051au0f driver function Pages: 1 -->
<svg width="271pt" height="290pt"
 viewBox="0.00 0.00 271.00 290.00" xmlns="http://www.w3.org/2000/svg" xmlns:xlink="http://www.w3.org/1999/xlink">
<g id="graph0" class="graph" transform="scale(1 1) rotate(0) translate(4 286)">
<title>gp2y1051au0f driver function</title>
<!-- Node3 -->
<g id="Node000003" class="node">
<title>Node3</title>
<g id="a_Node000003"><a xlink:href="group__gp2y1051au0f__basic__driver.html" target="_top" xlink:title="gp2y1051au0f basic driver modules">
<polygon fill="white" stroke="#666666" points="252.88,-282 149.88,-282 149.88,-250 252.88,-250 252.88,-282"/>
<text xml:space="preserve" text-anchor="start" x="157.88" y="-268.5" font-family="Helvetica,sans-Serif" font-size="10.00">gp2y1051au0f basic</text>
<text xml:space="preserve" text-anchor="middle" x="201.38" y="-256.5" font-family="Helvetica,sans-Serif" font-size="10.00"> driver function</text>
</a>
</g>
</g>
<!-- Node1 -->
<g id="Node000001" class="node">
<title>Node1</title>
<g id="a_Node000001"><a xlink:title="gp2y1051au0f driver modules">
<polygon fill="#999999" stroke="#666666" points="103.75,-157 0,-157 0,-125 103.75,-125 103.75,-157"/>
<text xml:space="preserve" text-anchor="start" x="8" y="-143.5" font-family="Helvetica,sans-Serif" font-size="10.00">gp2y1051au0f driver</text>
<text xml:space="preserve" text-anchor="middle" x="51.88" y="-131.5" font-family="Helvetica,sans-Serif" font-size="10.00"> function</text>
</a>
</g>
</g>
<!-- Node1&#45;&gt;Node3 -->
<g id="edge2" class="edge">
<title>Node1&#45;&gt;Node3</title>
<path fill="none" stroke="black" d="M69.78,-166.43C85.63,-188.62 111.12,-220.42 139.75,-241 144.19,-244.19 149.09,-247.06 154.13,-249.62"/>
<polygon fill="black" stroke="black" points="72.85,-164.72 64.26,-158.51 67.11,-168.72 72.85,-164.72"/>
</g>
<!-- Node6 -->
<g id="Node000006" class="node">
<title>Node6</title>
<g id="a_Node000006"><a xlink:href="group__gp2y1051au0f__example__driver.html" target="_top" xlink:title="gp2y1051au0f example driver modules">
<polygon fill="white" stroke="#666666" points="259.62,-232 143.12,-232 143.12,-200 259.62,-200 259.62,-232"/>
<text xml:space="preserve" text-anchor="start" x="151.12" y="-218.5" font-family="Helvetica,sans-Serif" font-size="10.00">gp2y1051au0f example</text>
<text xml:space="preserve" text-anchor="middle" x="201.38" y="-206.5" font-family="Helvetica,sans-Serif" font-size="10.00"> driver function</text>
</a>
</g>
</g>
<!-- Node1&#45;&gt;Node6 -->
<g id="edge5" class="edge">
<title>Node1&#45;&gt;Node6</title>
<path fill="none" stroke="black" d="M89.03,-163.23C104.41,-172.31 122.71,-182.63 139.75,-191 145.78,-193.96 152.25,-196.89 158.64,-199.63"/>
<polygon fill="black" stroke="black" points="91.06,-160.36 80.68,-158.24 87.47,-166.37 91.06,-160.36"/>
</g>
<!-- Node4 -->
<g id="Node000004" class="node">
<title>Node4</title>
<g id="a_Node000004"><a xlink:href="group__gp2y1051au0f__extern__driver.html" target="_top" xlink:title="gp2y1051au0f extern driver modules">
<polygon fill="white" stroke="#666666" points="254.75,-182 148,-182 148,-150 254.75,-150 254.75,-182"/>
<text xml:space="preserve" text-anchor="start" x="156" y="-168.5" font-family="Helvetica,sans-Serif" font-size="10.00">gp2y1051au0f extern</text>
<text xml:space="preserve" text-anchor="middle" x="201.38" y="-156.5" font-family="Helvetica,sans-Serif" font-size="10.00"> driver function</text>
</a>
</g>
</g>
<!-- Node1&#45;&gt;Node4 -->
<g id="edge3" class="edge">
<title>Node1&#45;&gt;Node4</title>
<path fill="none" stroke="black" d="M115.13,-151.55C125.91,-153.38 137.03,-155.26 147.54,-157.04"/>
<polygon fill="black" stroke="black" points="115.99,-148.15 105.54,-149.93 114.82,-155.05 115.99,-148.15"/>
</g>
<!-- Node5 -->
<g id="Node000005" class="node">
<title>Node5</title>
<g id="a_Node000005"><a xlink:href="group__gp2y1051au0f__interface__driver.html" target="_top" xlink:title="gp2y1051au0f interface driver modules">
<polygon fill="white" stroke="#666666" points="260,-132 142.75,-132 142.75,-100 260,-100 260,-132"/>
<text xml:space="preserve" text-anchor="start" x="150.75" y="-118.5" font-family="Helvetica,sans-Serif" font-size="10.00">gp2y1051au0f interface</text>
<text xml:space="preserve" text-anchor="middle" x="201.38" y="-106.5" font-family="Helvetica,sans-Serif" font-size="10.00"> driver function</text>
</a>
</g>
</g>
<!-- Node1&#45;&gt;Node5 -->
<g id="edge4" class="edge">
<title>Node1&#45;&gt;Node5</title>
<path fill="none" stroke="black" d="M115.3,-130.42C124.31,-128.89 133.55,-127.33 142.47,-125.81"/>
<polygon fill="black" stroke="black" points="114.82,-126.95 105.54,-132.07 115.99,-133.85 114.82,-126.95"/>
</g>
<!-- Node2 -->
<g id="Node000002" class="node">
<title>Node2</title>
<g id="a_Node000002"><a xlink:href="group__gp2y1051au0f__link__driver.html" target="_top" xlink:title="gp2y1051au0f link driver modules">
<polygon fill="white" stroke="#666666" points="262.25,-82 140.5,-82 140.5,-50 262.25,-50 262.25,-82"/>
<text xml:space="preserve" text-anchor="start" x="148.5" y="-68.5" font-family="Helvetica,sans-Serif" font-size="10.00">gp2y1051au0f link driver</text>
<text xml:space="preserve" text-anchor="middle" x="201.38" y="-56.5" font-family="Helvetica,sans-Serif" font-size="10.00"> function</text>
</a>
</g>
</g>
<!-- Node1&#45;&gt;Node2 -->
<g id="edge1" class="edge">
<title>Node1&#45;&gt;Node2</title>
<path fill="none" stroke="black" d="M89.03,-118.77C104.41,-109.69 122.71,-99.37 139.75,-91 145.78,-88.04 152.25,-85.11 158.64,-82.37"/>
<polygon fill="black" stroke="black" points="87.47,-115.63 80.68,-123.76 91.06,-121.64 87.47,-115.63"/>
</g>
<!-- Node7 -->
<g id="Node000007" class="node">
<title>Node7</title>
<g id="a_Node000007"><a xlink:href="group__gp2y1051au0f__test__driver.html" target="_top" xlink:title="gp2y1051au0f test driver modules">
<polygon fill="white" stroke="#666666" points="263,-32 139.75,-32 139.75,0 263,0 263,-32"/>
<text xml:space="preserve" text-anchor="start" x="147.75" y="-18.5" font-family="Helvetica,sans-Serif" font-size="10.00">gp2y1051au0f test driver</text>
<text xml:space="preserve" text-anchor="middle" x="201.38" y="-6.5" font-family="Helvetica,sans-Serif" font-size="10.00"> function</text>
</a>
</g>
</g>
<!-- Node1&#45;&gt;Node7 -->
<g id="edge6" class="edge">
<title>Node1&#45;&gt;Node7</title>
<path fill="none" stroke="black" d="M69.78,-115.57C85.63,-93.38 111.12,-61.58 139.75,-41 144.19,-37.81 149.09,-34.94 154.13,-32.38"/>
<polygon fill="black" stroke="black" points="67.11,-113.28 64.26,-123.49 72.85,-117.28 67.11,-113.28"/>
</g>
</g>
</svg>
