<?xml version="1.0" encoding="UTF-8" standalone="no"?>
<!DOCTYPE svg PUBLIC "-//W3C//DTD SVG 1.1//EN"
 "http://www.w3.org/Graphics/SVG/1.1/DTD/svg11.dtd">
<!-- Generated by graphviz version 13.1.0 (20250701.0955)
 -->
<!-- Title: gp2y1051au0f_basic_init Pages: 1 -->
<svg width="287pt" height="328pt"
 viewBox="0.00 0.00 287.00 328.00" xmlns="http://www.w3.org/2000/svg" xmlns:xlink="http://www.w3.org/1999/xlink">
<g id="graph0" class="graph" transform="scale(1 1) rotate(0) translate(4 324)">
<title>gp2y1051au0f_basic_init</title>
<!-- Node1 -->
<g id="Node000001" class="node">
<title>Node1</title>
<g id="a_Node000001"><a xlink:title="basic example init">
<polygon fill="#999999" stroke="#666666" points="123.25,-176 0,-176 0,-156 123.25,-156 123.25,-176"/>
<text xml:space="preserve" text-anchor="middle" x="61.62" y="-162.5" font-family="Helvetica,sans-Serif" font-size="10.00">gp2y1051au0f_basic_init</text>
</a>
</g>
</g>
<!-- Node2 -->
<g id="Node000002" class="node">
<title>Node2</title>
<g id="a_Node000002"><a xlink:href="group__gp2y1051au0f__basic__driver.html#gab96f4d674b373b38377762b6d23d5be5" target="_top" xlink:title="initialize the chip">
<polygon fill="white" stroke="#666666" points="266.38,-320 171.62,-320 171.62,-300 266.38,-300 266.38,-320"/>
<text xml:space="preserve" text-anchor="middle" x="219" y="-306.5" font-family="Helvetica,sans-Serif" font-size="10.00">gp2y1051au0f_init</text>
</a>
</g>
</g>
<!-- Node1&#45;&gt;Node2 -->
<g id="edge1_Node000001_Node000002" class="edge">
<title>Node1&#45;&gt;Node2</title>
<g id="a_edge1_Node000001_Node000002"><a xlink:title=" ">
<path fill="none" stroke="#63b8ff" d="M67.84,-176.44C80.3,-200.32 114.15,-259.29 159.25,-291 161.06,-292.27 162.96,-293.46 164.92,-294.57"/>
<polygon fill="#63b8ff" stroke="#63b8ff" points="163.25,-297.66 173.78,-298.87 166.3,-291.36 163.25,-297.66"/>
</a>
</g>
</g>
<!-- Node3 -->
<g id="Node000003" class="node">
<title>Node3</title>
<g id="a_Node000003"><a xlink:href="group__gp2y1051au0f__interface__driver.html#gaf856152520c082aeb8b00bb3fd192801" target="_top" xlink:title="interface print format data">
<polygon fill="white" stroke="#666666" points="278.75,-282 159.25,-282 159.25,-250 278.75,-250 278.75,-282"/>
<text xml:space="preserve" text-anchor="start" x="167.25" y="-268.5" font-family="Helvetica,sans-Serif" font-size="10.00">gp2y1051au0f_interface</text>
<text xml:space="preserve" text-anchor="middle" x="219" y="-256.5" font-family="Helvetica,sans-Serif" font-size="10.00">_debug_print</text>
</a>
</g>
</g>
<!-- Node1&#45;&gt;Node3 -->
<g id="edge2_Node000001_Node000003" class="edge">
<title>Node1&#45;&gt;Node3</title>
<g id="a_edge2_Node000001_Node000003"><a xlink:title=" ">
<path fill="none" stroke="#63b8ff" d="M73.83,-176.27C91.15,-191.77 125.93,-221.42 159.25,-241 161.27,-242.18 163.35,-243.34 165.47,-244.47"/>
<polygon fill="#63b8ff" stroke="#63b8ff" points="163.76,-247.53 174.27,-248.86 166.88,-241.27 163.76,-247.53"/>
</a>
</g>
</g>
<!-- Node4 -->
<g id="Node000004" class="node">
<title>Node4</title>
<g id="a_Node000004"><a xlink:href="group__gp2y1051au0f__interface__driver.html#ga4e037fc09b3444050e53be53abf924f1" target="_top" xlink:title="interface delay ms">
<polygon fill="white" stroke="#666666" points="278.75,-232 159.25,-232 159.25,-200 278.75,-200 278.75,-232"/>
<text xml:space="preserve" text-anchor="start" x="167.25" y="-218.5" font-family="Helvetica,sans-Serif" font-size="10.00">gp2y1051au0f_interface</text>
<text xml:space="preserve" text-anchor="middle" x="219" y="-206.5" font-family="Helvetica,sans-Serif" font-size="10.00">_delay_ms</text>
</a>
</g>
</g>
<!-- Node1&#45;&gt;Node4 -->
<g id="edge3_Node000001_Node000004" class="edge">
<title>Node1&#45;&gt;Node4</title>
<g id="a_edge3_Node000001_Node000004"><a xlink:title=" ">
<path fill="none" stroke="#63b8ff" d="M95.2,-176.48C112.85,-182.16 135.27,-189.38 156.1,-196.08"/>
<polygon fill="#63b8ff" stroke="#63b8ff" points="154.78,-199.33 165.38,-199.07 156.93,-192.67 154.78,-199.33"/>
</a>
</g>
</g>
<!-- Node5 -->
<g id="Node000005" class="node">
<title>Node5</title>
<g id="a_Node000005"><a xlink:href="group__gp2y1051au0f__interface__driver.html#ga0467815014a4cff8736932bf8b9b95e9" target="_top" xlink:title="interface uart deinit">
<polygon fill="white" stroke="#666666" points="278.75,-182 159.25,-182 159.25,-150 278.75,-150 278.75,-182"/>
<text xml:space="preserve" text-anchor="start" x="167.25" y="-168.5" font-family="Helvetica,sans-Serif" font-size="10.00">gp2y1051au0f_interface</text>
<text xml:space="preserve" text-anchor="middle" x="219" y="-156.5" font-family="Helvetica,sans-Serif" font-size="10.00">_uart_deinit</text>
</a>
</g>
</g>
<!-- Node1&#45;&gt;Node5 -->
<g id="edge4_Node000001_Node000005" class="edge">
<title>Node1&#45;&gt;Node5</title>
<g id="a_edge4_Node000001_Node000005"><a xlink:title=" ">
<path fill="none" stroke="#63b8ff" d="M123.59,-166C131.5,-166 139.66,-166 147.72,-166"/>
<polygon fill="#63b8ff" stroke="#63b8ff" points="147.48,-169.5 157.48,-166 147.48,-162.5 147.48,-169.5"/>
</a>
</g>
</g>
<!-- Node6 -->
<g id="Node000006" class="node">
<title>Node6</title>
<g id="a_Node000006"><a xlink:href="group__gp2y1051au0f__interface__driver.html#ga2e7991fef0517cdfcbe2635790c38fc8" target="_top" xlink:title="interface uart flush">
<polygon fill="white" stroke="#666666" points="278.75,-132 159.25,-132 159.25,-100 278.75,-100 278.75,-132"/>
<text xml:space="preserve" text-anchor="start" x="167.25" y="-118.5" font-family="Helvetica,sans-Serif" font-size="10.00">gp2y1051au0f_interface</text>
<text xml:space="preserve" text-anchor="middle" x="219" y="-106.5" font-family="Helvetica,sans-Serif" font-size="10.00">_uart_flush</text>
</a>
</g>
</g>
<!-- Node1&#45;&gt;Node6 -->
<g id="edge5_Node000001_Node000006" class="edge">
<title>Node1&#45;&gt;Node6</title>
<g id="a_edge5_Node000001_Node000006"><a xlink:title=" ">
<path fill="none" stroke="#63b8ff" d="M95.2,-155.52C112.85,-149.84 135.27,-142.62 156.1,-135.92"/>
<polygon fill="#63b8ff" stroke="#63b8ff" points="156.93,-139.33 165.38,-132.93 154.78,-132.67 156.93,-139.33"/>
</a>
</g>
</g>
<!-- Node7 -->
<g id="Node000007" class="node">
<title>Node7</title>
<g id="a_Node000007"><a xlink:href="group__gp2y1051au0f__interface__driver.html#ga958911eaef205c678e72a2036d78e549" target="_top" xlink:title="interface uart init">
<polygon fill="white" stroke="#666666" points="278.75,-82 159.25,-82 159.25,-50 278.75,-50 278.75,-82"/>
<text xml:space="preserve" text-anchor="start" x="167.25" y="-68.5" font-family="Helvetica,sans-Serif" font-size="10.00">gp2y1051au0f_interface</text>
<text xml:space="preserve" text-anchor="middle" x="219" y="-56.5" font-family="Helvetica,sans-Serif" font-size="10.00">_uart_init</text>
</a>
</g>
</g>
<!-- Node1&#45;&gt;Node7 -->
<g id="edge6_Node000001_Node000007" class="edge">
<title>Node1&#45;&gt;Node7</title>
<g id="a_edge6_Node000001_Node000007"><a xlink:title=" ">
<path fill="none" stroke="#63b8ff" d="M73.83,-155.73C91.15,-140.23 125.93,-110.58 159.25,-91 161.27,-89.82 163.35,-88.66 165.47,-87.53"/>
<polygon fill="#63b8ff" stroke="#63b8ff" points="166.88,-90.73 174.27,-83.14 163.76,-84.47 166.88,-90.73"/>
</a>
</g>
</g>
<!-- Node8 -->
<g id="Node000008" class="node">
<title>Node8</title>
<g id="a_Node000008"><a xlink:href="group__gp2y1051au0f__interface__driver.html#ga93315d370ce95c4546a06eade0b59bdc" target="_top" xlink:title="interface uart read">
<polygon fill="white" stroke="#666666" points="278.75,-32 159.25,-32 159.25,0 278.75,0 278.75,-32"/>
<text xml:space="preserve" text-anchor="start" x="167.25" y="-18.5" font-family="Helvetica,sans-Serif" font-size="10.00">gp2y1051au0f_interface</text>
<text xml:space="preserve" text-anchor="middle" x="219" y="-6.5" font-family="Helvetica,sans-Serif" font-size="10.00">_uart_read</text>
</a>
</g>
</g>
<!-- Node1&#45;&gt;Node8 -->
<g id="edge7_Node000001_Node000008" class="edge">
<title>Node1&#45;&gt;Node8</title>
<g id="a_edge7_Node000001_Node000008"><a xlink:title=" ">
<path fill="none" stroke="#63b8ff" d="M68.05,-155.84C80.93,-132.54 115.61,-74.69 159.25,-41 160.54,-40 161.87,-39.04 163.24,-38.11"/>
<polygon fill="#63b8ff" stroke="#63b8ff" points="164.65,-41.35 171.41,-33.2 161.04,-35.35 164.65,-41.35"/>
</a>
</g>
</g>
</g>
</svg>
