<?xml version="1.0" encoding="UTF-8" standalone="no"?>
<!DOCTYPE svg PUBLIC "-//W3C//DTD SVG 1.1//EN"
 "http://www.w3.org/Graphics/SVG/1.1/DTD/svg11.dtd">
<!-- Generated by graphviz version 14.1.1 (20251213.1925)
 -->
<!-- Title: gp2y1051au0f_read_test Pages: 1 -->
<svg width="286pt" height="442pt"
 viewBox="0.00 0.00 286.00 442.00" xmlns="http://www.w3.org/2000/svg" xmlns:xlink="http://www.w3.org/1999/xlink">
<g id="graph0" class="graph" transform="scale(1 1) rotate(0) translate(4 438)">
<title>gp2y1051au0f_read_test</title>
<!-- Node1 -->
<g id="Node000001" class="node">
<title>Node1</title>
<g id="a_Node000001"><a xlink:title="read test">
<polygon fill="#999999" stroke="#666666" points="122.5,-239 0,-239 0,-219 122.5,-219 122.5,-239"/>
<text xml:space="preserve" text-anchor="middle" x="61.25" y="-225.5" font-family="Helvetica,sans-Serif" font-size="10.00">gp2y1051au0f_read_test</text>
</a>
</g>
</g>
<!-- Node2 -->
<g id="Node000002" class="node">
<title>Node2</title>
<g id="a_Node000002"><a xlink:href="group__gp2y1051au0f__basic__driver.html#gad7e338f851dff38bcd04102dbc1c3044" target="_top" xlink:title="close the chip">
<polygon fill="white" stroke="#666666" points="270.88,-434 165.62,-434 165.62,-414 270.88,-414 270.88,-434"/>
<text xml:space="preserve" text-anchor="middle" x="218.25" y="-420.5" font-family="Helvetica,sans-Serif" font-size="10.00">gp2y1051au0f_deinit</text>
</a>
</g>
</g>
<!-- Node1&#45;&gt;Node2 -->
<g id="edge1_Node000001_Node000002" class="edge">
<title>Node1&#45;&gt;Node2</title>
<g id="a_edge1_Node000001_Node000002"><a xlink:title=" ">
<path fill="none" stroke="#63b8ff" d="M65,-239.49C73.49,-269.81 102.17,-358.36 158.5,-405 159.79,-406.07 161.14,-407.08 162.54,-408.03"/>
<polygon fill="#63b8ff" stroke="#63b8ff" points="160.61,-410.96 171.05,-412.79 164.03,-404.85 160.61,-410.96"/>
</a>
</g>
</g>
<!-- Node3 -->
<g id="Node000003" class="node">
<title>Node3</title>
<g id="a_Node000003"><a xlink:href="group__gp2y1051au0f__basic__driver.html#ga5cc78ecea6aadd7203f9922fe373bb1c" target="_top" xlink:title="get chip&#39;s information">
<polygon fill="white" stroke="#666666" points="267.12,-396 169.38,-396 169.38,-376 267.12,-376 267.12,-396"/>
<text xml:space="preserve" text-anchor="middle" x="218.25" y="-382.5" font-family="Helvetica,sans-Serif" font-size="10.00">gp2y1051au0f_info</text>
</a>
</g>
</g>
<!-- Node1&#45;&gt;Node3 -->
<g id="edge2_Node000001_Node000003" class="edge">
<title>Node1&#45;&gt;Node3</title>
<g id="a_edge2_Node000001_Node000003"><a xlink:title=" ">
<path fill="none" stroke="#63b8ff" d="M66.62,-239.38C77.92,-264.96 110.61,-331.54 158.5,-367 160.24,-368.29 162.08,-369.5 163.98,-370.62"/>
<polygon fill="#63b8ff" stroke="#63b8ff" points="162.07,-373.58 172.58,-374.93 165.21,-367.32 162.07,-373.58"/>
</a>
</g>
</g>
<!-- Node4 -->
<g id="Node000004" class="node">
<title>Node4</title>
<g id="a_Node000004"><a xlink:href="group__gp2y1051au0f__basic__driver.html#gab96f4d674b373b38377762b6d23d5be5" target="_top" xlink:title="initialize the chip">
<polygon fill="white" stroke="#666666" points="265.62,-358 170.88,-358 170.88,-338 265.62,-338 265.62,-358"/>
<text xml:space="preserve" text-anchor="middle" x="218.25" y="-344.5" font-family="Helvetica,sans-Serif" font-size="10.00">gp2y1051au0f_init</text>
</a>
</g>
</g>
<!-- Node1&#45;&gt;Node4 -->
<g id="edge3_Node000001_Node000004" class="edge">
<title>Node1&#45;&gt;Node4</title>
<g id="a_edge3_Node000001_Node000004"><a xlink:title=" ">
<path fill="none" stroke="#63b8ff" d="M69.48,-239.4C84.02,-259.57 118.86,-304.22 158.5,-329 160.76,-330.41 163.14,-331.73 165.59,-332.96"/>
<polygon fill="#63b8ff" stroke="#63b8ff" points="164,-336.09 174.57,-336.91 166.82,-329.68 164,-336.09"/>
</a>
</g>
</g>
<!-- Node5 -->
<g id="Node000005" class="node">
<title>Node5</title>
<g id="a_Node000005"><a xlink:href="group__gp2y1051au0f__interface__driver.html#gaf856152520c082aeb8b00bb3fd192801" target="_top" xlink:title="interface print format data">
<polygon fill="white" stroke="#666666" points="278,-320 158.5,-320 158.5,-288 278,-288 278,-320"/>
<text xml:space="preserve" text-anchor="start" x="166.5" y="-306.5" font-family="Helvetica,sans-Serif" font-size="10.00">gp2y1051au0f_interface</text>
<text xml:space="preserve" text-anchor="middle" x="218.25" y="-294.5" font-family="Helvetica,sans-Serif" font-size="10.00">_debug_print</text>
</a>
</g>
</g>
<!-- Node1&#45;&gt;Node5 -->
<g id="edge4_Node000001_Node000005" class="edge">
<title>Node1&#45;&gt;Node5</title>
<g id="a_edge4_Node000001_Node000005"><a xlink:title=" ">
<path fill="none" stroke="#63b8ff" d="M81.21,-239.4C100.47,-249.83 131.25,-266.15 158.5,-279 161.37,-280.35 164.33,-281.71 167.32,-283.07"/>
<polygon fill="#63b8ff" stroke="#63b8ff" points="165.62,-286.14 176.18,-286.99 168.45,-279.74 165.62,-286.14"/>
</a>
</g>
</g>
<!-- Node6 -->
<g id="Node000006" class="node">
<title>Node6</title>
<g id="a_Node000006"><a xlink:href="group__gp2y1051au0f__interface__driver.html#ga4e037fc09b3444050e53be53abf924f1" target="_top" xlink:title="interface delay ms">
<polygon fill="white" stroke="#666666" points="278,-270 158.5,-270 158.5,-238 278,-238 278,-270"/>
<text xml:space="preserve" text-anchor="start" x="166.5" y="-256.5" font-family="Helvetica,sans-Serif" font-size="10.00">gp2y1051au0f_interface</text>
<text xml:space="preserve" text-anchor="middle" x="218.25" y="-244.5" font-family="Helvetica,sans-Serif" font-size="10.00">_delay_ms</text>
</a>
</g>
</g>
<!-- Node1&#45;&gt;Node6 -->
<g id="edge5_Node000001_Node000006" class="edge">
<title>Node1&#45;&gt;Node6</title>
<g id="a_edge5_Node000001_Node000006"><a xlink:title=" ">
<path fill="none" stroke="#63b8ff" d="M122.62,-238.74C130.54,-240.01 138.7,-241.33 146.77,-242.63"/>
<polygon fill="#63b8ff" stroke="#63b8ff" points="146.14,-246.08 156.57,-244.21 147.25,-239.16 146.14,-246.08"/>
</a>
</g>
</g>
<!-- Node7 -->
<g id="Node000007" class="node">
<title>Node7</title>
<g id="a_Node000007"><a xlink:href="group__gp2y1051au0f__interface__driver.html#ga0467815014a4cff8736932bf8b9b95e9" target="_top" xlink:title="interface uart deinit">
<polygon fill="white" stroke="#666666" points="278,-220 158.5,-220 158.5,-188 278,-188 278,-220"/>
<text xml:space="preserve" text-anchor="start" x="166.5" y="-206.5" font-family="Helvetica,sans-Serif" font-size="10.00">gp2y1051au0f_interface</text>
<text xml:space="preserve" text-anchor="middle" x="218.25" y="-194.5" font-family="Helvetica,sans-Serif" font-size="10.00">_uart_deinit</text>
</a>
</g>
</g>
<!-- Node1&#45;&gt;Node7 -->
<g id="edge6_Node000001_Node000007" class="edge">
<title>Node1&#45;&gt;Node7</title>
<g id="a_edge6_Node000001_Node000007"><a xlink:title=" ">
<path fill="none" stroke="#63b8ff" d="M122.62,-219.26C130.54,-217.99 138.7,-216.67 146.77,-215.37"/>
<polygon fill="#63b8ff" stroke="#63b8ff" points="147.25,-218.84 156.57,-213.79 146.14,-211.92 147.25,-218.84"/>
</a>
</g>
</g>
<!-- Node8 -->
<g id="Node000008" class="node">
<title>Node8</title>
<g id="a_Node000008"><a xlink:href="group__gp2y1051au0f__interface__driver.html#ga2e7991fef0517cdfcbe2635790c38fc8" target="_top" xlink:title="interface uart flush">
<polygon fill="white" stroke="#666666" points="278,-170 158.5,-170 158.5,-138 278,-138 278,-170"/>
<text xml:space="preserve" text-anchor="start" x="166.5" y="-156.5" font-family="Helvetica,sans-Serif" font-size="10.00">gp2y1051au0f_interface</text>
<text xml:space="preserve" text-anchor="middle" x="218.25" y="-144.5" font-family="Helvetica,sans-Serif" font-size="10.00">_uart_flush</text>
</a>
</g>
</g>
<!-- Node1&#45;&gt;Node8 -->
<g id="edge7_Node000001_Node000008" class="edge">
<title>Node1&#45;&gt;Node8</title>
<g id="a_edge7_Node000001_Node000008"><a xlink:title=" ">
<path fill="none" stroke="#63b8ff" d="M81.21,-218.6C100.47,-208.17 131.25,-191.85 158.5,-179 161.37,-177.65 164.33,-176.29 167.32,-174.93"/>
<polygon fill="#63b8ff" stroke="#63b8ff" points="168.45,-178.26 176.18,-171.01 165.62,-171.86 168.45,-178.26"/>
</a>
</g>
</g>
<!-- Node9 -->
<g id="Node000009" class="node">
<title>Node9</title>
<g id="a_Node000009"><a xlink:href="group__gp2y1051au0f__interface__driver.html#ga958911eaef205c678e72a2036d78e549" target="_top" xlink:title="interface uart init">
<polygon fill="white" stroke="#666666" points="278,-120 158.5,-120 158.5,-88 278,-88 278,-120"/>
<text xml:space="preserve" text-anchor="start" x="166.5" y="-106.5" font-family="Helvetica,sans-Serif" font-size="10.00">gp2y1051au0f_interface</text>
<text xml:space="preserve" text-anchor="middle" x="218.25" y="-94.5" font-family="Helvetica,sans-Serif" font-size="10.00">_uart_init</text>
</a>
</g>
</g>
<!-- Node1&#45;&gt;Node9 -->
<g id="edge8_Node000001_Node000009" class="edge">
<title>Node1&#45;&gt;Node9</title>
<g id="a_edge8_Node000001_Node000009"><a xlink:title=" ">
<path fill="none" stroke="#63b8ff" d="M69.91,-218.61C84.95,-198.83 120.21,-155.39 158.5,-129 160.07,-127.92 161.69,-126.87 163.35,-125.85"/>
<polygon fill="#63b8ff" stroke="#63b8ff" points="164.83,-129.04 171.89,-121.13 161.44,-122.91 164.83,-129.04"/>
</a>
</g>
</g>
<!-- Node10 -->
<g id="Node000010" class="node">
<title>Node10</title>
<g id="a_Node000010"><a xlink:href="group__gp2y1051au0f__interface__driver.html#ga93315d370ce95c4546a06eade0b59bdc" target="_top" xlink:title="interface uart read">
<polygon fill="white" stroke="#666666" points="278,-70 158.5,-70 158.5,-38 278,-38 278,-70"/>
<text xml:space="preserve" text-anchor="start" x="166.5" y="-56.5" font-family="Helvetica,sans-Serif" font-size="10.00">gp2y1051au0f_interface</text>
<text xml:space="preserve" text-anchor="middle" x="218.25" y="-44.5" font-family="Helvetica,sans-Serif" font-size="10.00">_uart_read</text>
</a>
</g>
</g>
<!-- Node1&#45;&gt;Node10 -->
<g id="edge9_Node000001_Node000010" class="edge">
<title>Node1&#45;&gt;Node10</title>
<g id="a_edge9_Node000001_Node000010"><a xlink:title=" ">
<path fill="none" stroke="#63b8ff" d="M66.26,-218.78C77.15,-192.19 109.8,-120.13 158.5,-79 159.45,-78.2 160.44,-77.41 161.44,-76.65"/>
<polygon fill="#63b8ff" stroke="#63b8ff" points="163.33,-79.6 169.81,-71.22 159.51,-73.73 163.33,-79.6"/>
</a>
</g>
</g>
<!-- Node11 -->
<g id="Node000011" class="node">
<title>Node11</title>
<g id="a_Node000011"><a xlink:href="group__gp2y1051au0f__basic__driver.html#ga2dc9a7405ddf22475d09ced572010984" target="_top" xlink:title="read the data">
<polygon fill="white" stroke="#666666" points="268.62,-20 167.88,-20 167.88,0 268.62,0 268.62,-20"/>
<text xml:space="preserve" text-anchor="middle" x="218.25" y="-6.5" font-family="Helvetica,sans-Serif" font-size="10.00">gp2y1051au0f_read</text>
</a>
</g>
</g>
<!-- Node1&#45;&gt;Node11 -->
<g id="edge10_Node000001_Node000011" class="edge">
<title>Node1&#45;&gt;Node11</title>
<g id="a_edge10_Node000001_Node000011"><a xlink:title=" ">
<path fill="none" stroke="#63b8ff" d="M64.25,-218.54C71.09,-185.58 96.66,-82.97 158.5,-29 159.61,-28.03 160.78,-27.11 161.98,-26.23"/>
<polygon fill="#63b8ff" stroke="#63b8ff" points="163.74,-29.26 170.59,-21.17 160.2,-23.22 163.74,-29.26"/>
</a>
</g>
</g>
</g>
</svg>
